# xmcd CD database file
# Copyright (C) 1997 Ti Kan
# 
# Track frame offsets:
#     150
#     15625
#     35312
#     64817
#     93260
#     110060
#     137562
#     159175
#     178000
#     197825
#     217762
#     245755
#     288595
# 
# Disc length: 4367 seconds
# 
# Revision: 1
# Processed by: cddbd v1.4b41PL1 Copyright (c) Steve Scherf et al.
# Submitted via: DiscPlay 4.0.4
# 
DISCID=b3110d0d
DTITLE=Grand Funk Railroad - The Greatest
DYEAR=1900
DGENRE=
TTITLE0=We're An American Band
TTITLE1=Mr. Limousine Driver
TTITLE2=Heartbreaker
TTITLE3=Gimme Shelter
TTITLE4=Time Machine
TTITLE5=Freedom Is For Children
TTITLE6=Sin's A Good Man's Brother
TTITLE7=Trying To Get Away
TTITLE8=Mean Mistreater
TTITLE9=Feelin' Alright
TTITLE10=The Rail Road
TTITLE11=Inside Looking Out
TTITLE12=Loneliness
EXTD=
EXTT0=
EXTT1=
EXTT2=
EXTT3=
EXTT4=
EXTT5=
EXTT6=
EXTT7=
EXTT8=
EXTT9=
EXTT10=
EXTT11=
EXTT12=
PLAYORDER=
